:FULLY-SPECIFIED
:FORCE-ALL-JOINTS-BE-3DOF
:DEGREES
1631
root -14.8391 14.5691 19.3658 -17.8091 -71.7631 16.5188
lfemur 6.13333 -9.69454 -11.6479
ltibia 36.3731 0 0
lfoot -22.3441 27.4945 -0.0133825
ltoes -43.5787 0 0
rfemur -51.4386 -14.4778 8.38739
rtibia 64.7788 0 0
rfoot -7.00423 9.48828 0.0547738
rtoes 1.94546 0 0
lowerback 13.3943 3.84687 -7.6446
upperback -0.322336 3.84424 -0.328934
thorax -8.36182 2.15988 3.17848
lowerneck 0.39952 -12.5509 -12.4087
upperneck 3.56181 -17.1516 9.89373
head 2.96662 -8.58451 4.20932
lclavicle -4.17966e-16 -1.24023e-14 -1.69582e-30
lhumerus -68.6061 -16.9808 103.369
lradius 102.002 0 0
lwrist 51.4924 0 0
lhand -1.75244 50.7526 0.533126
lfingers 7.12502 0 0
lthumb 23.8396 78.544 0.28458
rclavicle -4.17966e-16 -1.24023e-14 -1.69582e-30
rhumerus 42.0492 -0.84468 -54.8661
rradius 24.4824 0 0
rwrist 15.8535 0 0
rhand -18.0096 -38.0219 0.222235
rfingers 7.12502 0 0
rthumb 8.24813 -67.7139 0.257167
1632
root -14.8621 14.5686 19.3706 -17.8109 -71.8312 16.6751
lfemur 6.38748 -9.74799 -11.724
ltibia 35.9142 0 0
lfoot -22.2489 27.5963 -0.0132649
ltoes -43.5479 0 0
rfemur -51.5611 -14.5103 8.39887
rtibia 65.0075 0 0
rfoot -7.286 9.45805 0.0530711
rtoes 1.94716 0 0
lowerback 13.3712 3.83719 -7.64637
upperback -0.348706 3.83453 -0.309649
thorax -8.37768 2.15727 3.20287
lowerneck 0.449792 -12.5508 -12.4034
upperneck 3.53874 -17.1555 9.89403
head 2.95273 -8.58792 4.2127
lclavicle 1.92691e-15 -1.17362e-14 -1.73378e-30
lhumerus -68.5791 -17.0845 103.383
lradius 101.955 0 0
lwrist 51.5564 0 0
lhand -3.03904 50.4643 0.534132
lfingers 7.12502 0 0
lthumb 22.6067 78.4134 0.282185
rclavicle 1.92691e-15 -1.17362e-14 -1.73378e-30
rhumerus 42.0839 -0.850574 -54.9993
rradius 24.5282 0 0
rwrist 16.1022 0 0
rhand -17.8577 -37.7334 0.221973
rfingers 7.12502 0 0
rthumb 8.3947 -67.4183 0.257423
1633
root -14.8851 14.5681 19.3753 -17.7766 -71.8776 16.8054
lfemur 6.69189 -9.83039 -11.8023
ltibia 35.4042 0 0
lfoot -22.1516 27.7193 -0.0127996
ltoes -43.5178 0 0
rfemur -51.6905 -14.5437 8.40322
rtibia 65.2233 0 0
rfoot -7.58392 9.44951 0.0500952
rtoes 1.95992 0 0
lowerback 13.3422 3.83164 -7.64811
upperback -0.376719 3.83071 -0.291977
thorax -8.39283 2.15751 3.22402
lowerneck 0.510851 -12.561 -12.4069
upperneck 3.51249 -17.1749 9.90664
head 2.93857 -8.59916 4.2205
lclavicle 4.45838e-15 -1.10259e-14 -1.74647e-30
lhumerus -68.6216 -17.178 103.416
lradius 101.954 0 0
lwrist 51.6748 0 0
lhand -4.40385 50.1717 0.525599
lfingers 7.12502 0 0
lthumb 21.299 78.2885 0.274269
rclavicle 4.45838e-15 -1.10259e-14 -1.74647e-30
rhumerus 42.2009 -0.917158 -55.1368
rradius 24.4654 0 0
rwrist 16.4388 0 0
rhand -17.7267 -37.4377 0.217128
rfingers 7.12502 0 0
rthumb 8.52133 -67.1188 0.252384
1634
root -14.9081 14.5676 19.3801 -17.7027 -71.9002 16.9067
lfemur 7.04984 -9.94385 -11.8831
ltibia 34.8404 0 0
lfoot -22.0524 27.8647 -0.0120042
ltoes -43.4886 0 0
rfemur -51.8268 -14.578 8.3998
rtibia 65.4245 0 0
rfoot -7.89867 9.46459 0.0459265
rtoes 1.98467 0 0
lowerback 13.3067 3.83059 -7.64981
upperback -0.406418 3.8333 -0.276126
thorax -8.40715 2.16084 3.24158
lowerneck 0.583443 -12.5825 -12.4198
upperneck 3.48286 -17.2112 9.93262
head 2.92418 -8.61887 4.23309
lclavicle 7.18417e-15 -1.027e-14 -1.72758e-30
lhumerus -68.7392 -17.26 103.468
lradius 102.005 0 0
lwrist 51.8521 0 0
lhand -5.84901 49.8758 0.506555
lfingers 7.12502 0 0
lthumb 19.9143 78.1706 0.260591
rclavicle 7.18417e-15 -1.027e-14 -1.72758e-30
rhumerus 42.4071 -1.04922 -55.2789
rradius 24.2845 0 0
rwrist 16.87 0 0
rhand -17.6189 -37.1352 0.20753
rfingers 7.12502 0 0
rthumb 8.62578 -66.8161 0.241821
1635
root -14.9311 14.5671 19.3848 -17.586 -71.8971 16.976
lfemur 7.46513 -10.0906 -11.9668
ltibia 34.22 0 0
lfoot -21.9514 28.0341 -0.0109025
ltoes -43.4603 0 0
rfemur -51.9703 -14.6133 8.38798
rtibia 65.6092 0 0
rfoot -8.23052 9.50523 0.0406901
rtoes 2.02232 0 0
lowerback 13.2645 3.83441 -7.65148
upperback -0.437851 3.84282 -0.262302
thorax -8.42052 2.16751 3.25519
lowerneck 0.66832 -12.6161 -12.4431
upperneck 3.44963 -17.2655 9.97302
head 2.90957 -8.6477 4.25084
lclavicle 1.0112e-14 -9.46692e-15 -1.67002e-30
lhumerus -68.9383 -17.3289 103.543
lradius 102.11 0 0
lwrist 52.0927 0 0
lhand -7.37663 49.5776 0.476028
lfingers 7.12502 0 0
lthumb 18.4506 78.0607 0.240978
rclavicle 1.0112e-14 -9.46692e-15 -1.67002e-30
rhumerus 42.7096 -1.25137 -55.4261
rradius 23.9763 0 0
rwrist 17.4023 0 0
rhand -17.5367 -36.8263 0.193039
rfingers 7.12502 0 0
rthumb 8.70585 -66.5109 0.225536
1636
root -14.9541 14.5665 19.3896 -17.4234 -71.8661 17.0107
lfemur 7.94119 -10.2727 -12.054
ltibia 33.5402 0 0
lfoot -21.8487 28.2288 -0.00952515
ltoes -43.4332 0 0
rfemur -52.1211 -14.6494 8.36712
rtibia 65.7754 0 0
rfoot -8.5799 9.57337 0.0345555
rtoes 2.0738 0 0
lowerback 13.215 3.8435 -7.6531
upperback -0.471064 3.85981 -0.250713
thorax -8.43283 2.17777 3.2645
lowerneck 0.766244 -12.6626 -12.4773
upperneck 3.41255 -17.3392 10.0289
head 2.89475 -8.6863 4.2741
lclavicle 1.32495e-14 -8.61531e-15 -1.56582e-30
lhumerus -69.2248 -17.3834 103.641
lradius 102.275 0 0
lwrist 52.4009 0 0
lhand -8.98884 49.2781 0.433058
lfingers 7.12502 0 0
lthumb 16.9058 77.9601 0.215332
rclavicle 1.32495e-14 -8.61531e-15 -1.56582e-30
rhumerus 43.1157 -1.52839 -55.5796
rradius 23.5318 0 0
rwrist 18.0423 0 0
rhand -17.4825 -36.5114 0.173552
rfingers 7.12502 0 0
rthumb 8.75931 -66.204 0.203359
1637
root -14.9771 14.566 19.3943 -17.2124 -71.8051 17.0086
lfemur 8.48162 -10.4923 -12.1453
ltibia 32.7985 0 0
lfoot -21.7445 28.4503 -0.0079087
ltoes -43.4075 0 0
rfemur -52.2792 -14.6864 8.33658
rtibia 65.9215 0 0
rfoot -8.94708 9.67092 0.0277436
rtoes 2.14004 0 0
lowerback 13.1578 3.85822 -7.65469
upperback -0.506102 3.88479 -0.24157
thorax -8.44396 2.19186 3.26915
lowerneck 0.877991 -12.7228 -12.5235
upperneck 3.37137 -17.4336 10.1014
head 2.87975 -8.7353 4.30324
lclavicle 1.66044e-14 -7.71368e-15 -1.40614e-30
lhumerus -69.6044 -17.4218 103.764
lradius 102.504 0 0
lwrist 52.7808 0 0
lhand -10.6877 48.9785 0.376704
lfingers 7.12502 0 0
lthumb 15.2777 77.8699 0.183645
rclavicle 1.66044e-14 -7.71368e-15 -1.40614e-30
rhumerus 43.6325 -1.88482 -55.741
rradius 22.9412 0 0
rwrist 18.7966 0 0
rhand -17.4584 -36.1907 0.149
rfingers 7.12502 0 0
rthumb 8.78392 -65.8959 0.175148
1638
root -15 14.5655 19.3991 -16.9509 -71.712 16.9679
lfemur 9.09009 -10.7515 -12.2418
ltibia 31.992 0 0
lfoot -21.6389 28.7 -0.00609614
ltoes -43.3832 0 0
rfemur -52.4449 -14.7244 8.29572
rtibia 66.0454 0 0
rfoot -9.33275 9.79988 0.0205209
rtoes 2.22196 0 0
lowerback 13.0926 3.87896 -7.65624
upperback -0.543015 3.91828 -0.235083
thorax -8.45381 2.21002 3.26878
lowerneck 1.00435 -12.7976 -12.5824
upperneck 3.32579 -17.5498 10.1916
head 2.86455 -8.79536 4.33864
lclavicle 2.01844e-14 -6.76059e-15 -1.18113e-30
lhumerus -70.0833 -17.4423 103.914
lradius 102.799 0 0
lwrist 53.2372 0 0
lhand -12.4754 48.68 0.306058
lfingers 7.12502 0 0
lthumb 13.5644 77.7914 0.146005
rclavicle 2.01844e-14 -6.76059e-15 -1.18113e-30
rhumerus 44.2674 -2.32513 -55.9123
rradius 22.1955 0 0
rwrist 19.6716 0 0
rhand -17.4669 -35.8648 0.119349
rfingers 7.12502 0 0
rthumb 8.77746 -65.5874 0.140785
1639
root -15.023 14.565 19.4038 -16.6374 -71.5847 16.8875
lfemur 9.77031 -11.0522 -12.3444
ltibia 31.1179 0 0
lfoot -21.5322 28.9793 -0.0041364
ltoes -43.3606 0 0
rfemur -52.6183 -14.7634 8.24392
rtibia 66.1454 0 0
rfoot -9.73718 9.96215 0.0132183
rtoes 2.32048 0 0
lowerback 13.0188 3.90609 -7.65777
upperback -0.581852 3.96081 -0.231465
thorax -8.46225 2.23251 3.26303
lowerneck 1.14613 -12.8878 -12.6548
upperneck 3.27549 -17.6892 10.3005
head 2.84918 -8.86712 4.38066
lclavicle 2.39972e-14 -5.75461e-15 -8.79937e-31
lhumerus -70.667 -17.4429 104.092
lradius 103.167 0 0
lwrist 53.7743 0 0
lhand -14.354 48.3841 0.220253
lfingers 7.12502 0 0
lthumb 11.7637 77.7258 0.102613
rclavicle 2.39972e-14 -5.75461e-15 -8.79937e-31
rhumerus 45.0278 -2.85367 -56.0966
rradius 21.2852 0 0
rwrist 20.6741 0 0
rhand -17.5102 -35.5339 0.084601
rfingers 7.12502 0 0
rthumb 8.7377 -65.2791 0.100181
1640
root -15.046 14.5645 19.4086 -16.2708 -71.4209 16.7669
lfemur 10.5261 -11.3965 -12.4548
ltibia 30.1737 0 0
lfoot -21.4243 29.2896 -0.00208426
ltoes -43.3397 0 0
rfemur -52.7996 -14.8033 8.18053
rtibia 66.2195 0 0
rfoot -10.1608 10.1597 0.00622595
rtoes 2.43652 0 0
lowerback 12.9362 3.94 -7.65928
upperback -0.622665 4.01291 -0.230932
thorax -8.46919 2.25957 3.25156
lowerneck 1.30415 -12.9942 -12.7416
upperneck 3.22012 -17.853 10.4294
head 2.83362 -8.95122 4.42967
lclavicle 2.80506e-14 -4.69426e-15 -4.906e-31
lhumerus -71.3614 -17.4215 104.298
lradius 103.61 0 0
lwrist 54.3964 0 0
lhand -16.3256 48.0923 0.118479
lfingers 7.12502 0 0
lthumb 9.8735 77.6745 0.0537922
rclavicle 2.80506e-14 -4.69426e-15 -4.906e-31
rhumerus 45.9214 -3.4746 -56.2976
rradius 20.2012 0 0
rwrist 21.8104 0 0
rhand -17.5908 -35.1984 0.0447938
rfingers 7.12502 0 0
rthumb 8.66242 -64.9716 0.0532685
